<?xml version="1.0" encoding="utf-8"?>
<!-- Generator: Adobe Illustrator 27.5.0, SVG Export Plug-In . SVG Version: 6.00 Build 0)  -->
<svg version="1.1" xmlns="http://www.w3.org/2000/svg" xmlns:xlink="http://www.w3.org/1999/xlink" x="0px" y="0px"
	 viewBox="0 0 500 500" style="enable-background:new 0 0 500 500;" xml:space="preserve">
<g id="Background_Complete">
	<g>
		<g>
			<rect y="382.398" style="fill:#EBEBEB;" width="500" height="0.25"/>
			<path style="fill:#EBEBEB;" d="M237.014,337.8H43.915c-3.147,0-5.708-2.561-5.708-5.708V60.66c0-3.147,2.561-5.708,5.708-5.708
				h193.099c3.146,0,5.707,2.561,5.707,5.708v271.432C242.721,335.239,240.16,337.8,237.014,337.8z M43.915,55.203
				c-3.01,0-5.458,2.448-5.458,5.458v271.432c0,3.01,2.448,5.458,5.458,5.458h193.099c3.009,0,5.457-2.448,5.457-5.458V60.66
				c0-3.009-2.448-5.458-5.457-5.458H43.915z"/>
			<path style="fill:#EBEBEB;" d="M453.31,337.8H260.212c-3.147,0-5.707-2.561-5.707-5.708V60.66c0-3.147,2.561-5.708,5.707-5.708
				H453.31c3.148,0,5.708,2.561,5.708,5.708v271.432C459.019,335.239,456.458,337.8,453.31,337.8z M260.212,55.203
				c-3.009,0-5.457,2.448-5.457,5.458v271.432c0,3.01,2.448,5.458,5.457,5.458H453.31c3.01,0,5.458-2.448,5.458-5.458V60.66
				c0-3.009-2.448-5.458-5.458-5.458H260.212z"/>
		</g>
		<g>
			<rect x="423.904" y="398.494" style="fill:#EBEBEB;" width="25.997" height="0.25"/>
			<rect x="311" y="401.208" style="fill:#EBEBEB;" width="45.027" height="0.25"/>
			<rect x="362.111" y="389.208" style="fill:#EBEBEB;" width="60.792" height="0.25"/>
			<rect x="52.459" y="390.888" style="fill:#EBEBEB;" width="19.235" height="0.25"/>
			<rect x="80.597" y="390.888" style="fill:#EBEBEB;" width="55.292" height="0.25"/>
			<rect x="169.667" y="395.111" style="fill:#EBEBEB;" width="74.467" height="0.25"/>
		</g>
	</g>
	<g>
		<g>
			<g>
				<rect x="77.497" y="85.395" style="fill:#FAFAFA;" width="200.954" height="144.26"/>
				<polygon style="fill:#FFFFFF;" points="131.381,229.656 165.844,85.395 204.202,85.395 169.739,229.656 				"/>
				<polygon style="fill:#FFFFFF;" points="206.301,229.656 240.764,85.395 254.755,85.395 220.292,229.656 				"/>
				<polygon style="fill:#FFFFFF;" points="118.144,229.656 152.607,85.395 157.86,85.395 123.397,229.656 				"/>
				<g>
					<path style="fill:#E0E0E0;" d="M288.033,80.435H67.916c-0.491,0-0.893,0.402-0.893,0.893l0,0c0,0.491,0.402,0.893,0.893,0.893
						h220.117c0.491,0,0.893-0.402,0.893-0.893l0,0C288.926,80.837,288.524,80.435,288.033,80.435z"/>
					
						<rect x="174.577" y="85.084" transform="matrix(-1 -1.224647e-16 1.224647e-16 -1 357.727 315.0491)" style="fill:#F0F0F0;" width="8.574" height="144.88"/>
					
						<rect x="183.15" y="85.084" transform="matrix(-1 -1.224647e-16 1.224647e-16 -1 367.2582 315.0491)" style="fill:#E0E0E0;" width="0.957" height="144.88"/>
					
						<rect x="176.784" y="55.66" transform="matrix(6.123234e-17 -1 1 6.123234e-17 20.4487 335.4997)" style="fill:#F0F0F0;" width="2.381" height="203.731"/>
					<path style="fill:#F0F0F0;" d="M279.84,228.663L279.84,228.663V86.388v-2.382h-2.381H78.49h-2.381v2.382v142.276h0v2.381h0l0,0
						h2.381l0,0h198.969l0,0h2.381l0,0l0,0V228.663z M78.49,228.663V86.388h198.969v142.276H78.49z"/>
					
						<rect x="279.84" y="84.006" transform="matrix(-1 -1.224647e-16 1.224647e-16 -1 560.87 315.051)" style="fill:#E0E0E0;" width="1.191" height="147.038"/>
				</g>
			</g>
			<g>
				<polygon style="opacity:0.5;fill:#EBEBEB;" points="244.392,78.252 244.392,317.852 294.619,317.852 285.408,78.252 				"/>
				<polygon style="opacity:0.5;fill:#EBEBEB;" points="209.535,78.252 209.535,317.852 259.762,317.852 250.551,78.252 				"/>
				<polygon style="opacity:0.5;fill:#EBEBEB;" points="93.422,78.252 93.422,317.852 62.52,317.852 68.187,78.252 				"/>
				<polygon style="opacity:0.5;fill:#EBEBEB;" points="114.867,78.252 114.867,317.852 83.966,317.852 89.633,78.252 				"/>
			</g>
		</g>
		<g>
			
				<rect x="188.18" y="230.136" transform="matrix(-1 -1.224647e-16 1.224647e-16 -1 398.5349 612.5344)" style="fill:#E6E6E6;" width="22.174" height="152.262"/>
			<polygon style="fill:#F0F0F0;" points="195.986,382.398 188.18,382.398 188.18,353.461 204.17,353.461 			"/>
			
				<rect x="422.665" y="230.136" transform="matrix(-1 -1.224647e-16 1.224647e-16 -1 867.5053 612.5344)" style="fill:#E6E6E6;" width="22.174" height="152.262"/>
			
				<rect x="188.18" y="230.136" transform="matrix(-1 -1.224647e-16 1.224647e-16 -1 617.6578 604.6365)" style="fill:#F0F0F0;" width="241.297" height="144.364"/>
			<polygon style="fill:#F0F0F0;" points="421.672,382.398 429.478,382.398 429.478,353.461 413.488,353.461 			"/>
			<g>
				
					<rect x="325.979" y="266.036" transform="matrix(6.123234e-17 -1 1 6.123234e-17 83.8889 687.49)" style="fill:#E6E6E6;" width="119.421" height="71.529"/>
				<path style="fill:#F0F0F0;" d="M378.616,246.29h14.151c6.147,0,12.023-2.209,16.251-6.108l0,0h-46.653l0,0
					C366.593,244.081,372.469,246.29,378.616,246.29z"/>
			</g>
			<g>
				
					<rect x="249.118" y="266.036" transform="matrix(6.123234e-17 -1 1 6.123234e-17 7.0279 610.629)" style="fill:#E6E6E6;" width="119.421" height="71.528"/>
				<path style="fill:#F0F0F0;" d="M301.032,246.29h14.151c6.147,0,12.023-2.209,16.251-6.108l0,0h-46.653l0,0
					C289.009,244.081,294.885,246.29,301.032,246.29z"/>
			</g>
			<g>
				
					<rect x="172.257" y="266.036" transform="matrix(6.123234e-17 -1 1 6.123234e-17 -69.8332 533.7679)" style="fill:#E6E6E6;" width="119.421" height="71.528"/>
				<path style="fill:#F0F0F0;" d="M224.171,246.29h14.151c6.147,0,12.023-2.209,16.251-6.108l0,0H207.92l0,0
					C212.148,244.081,218.024,246.29,224.171,246.29z"/>
			</g>
		</g>
		<path style="fill:#E6E6E6;" d="M436.015,202.505h-73.502c0,0,0.669,18.941,21.741,25.193v2.439h30.02v-2.439
			C435.347,221.447,436.015,202.505,436.015,202.505z"/>
		<g>
			<rect x="319.96" y="82.436" style="fill:#F0F0F0;" width="96.135" height="102.941"/>
			
				<rect x="416.095" y="82.436" transform="matrix(-1 -1.224647e-16 1.224647e-16 -1 835.3697 267.8123)" style="fill:#E0E0E0;" width="3.18" height="102.941"/>
			<rect x="336.219" y="91.265" style="fill:#FFFFFF;" width="63.617" height="85.283"/>
		</g>
	</g>
</g>
<g id="Background_Simple" style="display:none;">
	<g style="display:inline;">
		<path style="fill:#407BFF;" d="M405.945,172.253c-8.814,60.057-57.183,120.87-109.36,160.486
			C161.667,435.911,41.193,268.322,75.442,206.469c26.305-62.56,100.56-47.119,133.319-72.193
			C392.925-7.614,414.011,121.976,405.945,172.253z"/>
		<path style="opacity:0.9;fill:#FFFFFF;" d="M405.945,172.253c-8.814,60.057-57.183,120.87-109.36,160.486
			C161.667,435.911,41.193,268.322,75.442,206.469c26.305-62.56,100.56-47.119,133.319-72.193
			C392.925-7.614,414.011,121.976,405.945,172.253z"/>
	</g>
</g>
<g id="Shadow_1_">
	<ellipse id="_x3C_Path_x3E__252_" style="fill:#F5F5F5;" cx="250" cy="416.238" rx="193.889" ry="11.323"/>
</g>
<g id="Character_1_">
	<g>
		<polygon style="fill:#FF8B7B;" points="367.846,412.331 359.711,412.203 359.162,393.309 367.297,393.437 		"/>
		<path style="fill:#407BFF;" d="M359.434,406.822l8.888,0.139c0.333,0.005,0.607,0.241,0.66,0.567l1.18,7.264
			c0.122,0.753-0.489,1.455-1.257,1.43c-3.203-0.105-7.825-0.366-11.854-0.429c-4.712-0.074-0.998,0.119-6.523,0.033
			c-3.341-0.052-4.069-3.447-2.652-3.731c6.449-1.294,6.775-2.737,9.56-4.67C358.025,407.017,358.731,406.811,359.434,406.822z"/>
		<path style="fill:#FF8B7B;" d="M336.358,168.156c-0.699,2.765-1.507,5.278-2.345,7.885c-0.824,2.587-1.782,5.132-2.765,7.677
			c-2.006,5.074-4.279,10.088-7.128,14.986c-0.34,0.613-0.731,1.221-1.113,1.828l-0.574,0.91l-0.287,0.454
			c-0.091,0.146-0.255,0.366-0.38,0.545c-1.063,1.516-2.313,2.838-3.656,3.918c-2.683,2.177-5.59,3.562-8.459,4.527
			c-2.876,0.951-5.743,1.508-8.585,1.796c-1.419,0.155-2.837,0.219-4.249,0.242c-1.434,0.013-2.775-0.035-4.31-0.177l-0.154-6.114
			c4.714-1.036,9.661-2.495,13.634-4.595c1.984-1.057,3.73-2.289,4.988-3.618c0.622-0.673,1.112-1.357,1.486-2.046l0.159-0.282
			l0.208-0.4l0.417-0.798c0.278-0.532,0.562-1.055,0.816-1.617c2.129-4.387,3.978-9.09,5.665-13.875
			c0.864-2.386,1.653-4.81,2.459-7.229c0.793-2.4,1.547-4.917,2.25-7.227L336.358,168.156z"/>
		<path style="fill:#FF8B7B;" d="M294.276,206.696l-9.241-0.978l0.444,9.279c0,0,6.994,1.706,9.92-3.633L294.276,206.696z"/>
		<path style="fill:#FF8B7B;" d="M277.43,209.814l1.711,3.969c0.285,0.661,0.925,1.092,1.646,1.108l4.693,0.105l-0.444-9.279
			l-6.285,1.491C277.601,207.481,276.965,208.736,277.43,209.814z"/>
		<polygon style="opacity:0.2;" points="359.164,393.314 359.445,403.053 367.584,403.181 367.302,393.442 		"/>
		<path style="fill:#407BFF;" d="M328.097,157.838c-4.369,5.493-8.347,15.969-9.98,21.973c4.85,8.072,14.353,6.662,14.353,6.662
			s7.859-6.219,10.427-13.66C345.463,165.372,335.821,148.126,328.097,157.838z"/>
		<g>
			<path style="fill:#407BFF;" d="M378.578,158.952c1.929,14.056-0.973,32.344,1.217,58.999c0,0-43.539,2.759-43.54,2.756
				c-7.915-33.807-8.765-48.01-9.607-57.33c-0.334-3.7,1.806-7.215,5.267-8.648c10.269-4.251,27.867-4.883,39.951-2.745
				C375.396,152.607,378.091,155.4,378.578,158.952z"/>
		</g>
		<g>
			<path style="fill:#FFFFFF;" d="M346.813,168.355c-4.084,0-7.516,2.056-9.56,5.271h20.221
				C354.754,170.411,350.897,168.355,346.813,168.355z"/>
			<path style="fill:#FFFFFF;" d="M358.081,174.392h-21.28c-0.492,0.908-0.879,1.898-1.148,2.944h24.191
				C359.356,176.29,358.763,175.301,358.081,174.392z"/>
			<path style="fill:#FFFFFF;" d="M360.276,178.346h-24.844c-0.154,0.868-0.234,1.772-0.226,2.704h25.862
				C360.881,180.117,360.612,179.213,360.276,178.346z"/>
			<path style="fill:#FFFFFF;" d="M345.249,195.898h8.882c1.039-0.43,1.992-1.01,2.846-1.723h-14.934
				C343.045,194.889,344.12,195.468,345.249,195.898z"/>
			<path style="fill:#FFFFFF;" d="M339.756,192.188h19.093c0.453-0.608,0.851-1.269,1.19-1.971h-21.885
				C338.639,190.919,339.176,191.58,339.756,192.188z"/>
			<path style="fill:#FFFFFF;" d="M337.092,188.474h23.641c0.223-0.71,0.391-1.448,0.5-2.214h-25.104
				C336.398,187.027,336.72,187.765,337.092,188.474z"/>
			<path style="fill:#FFFFFF;" d="M361.265,182.303H335.27c0.005,0.081,0.014,0.166,0.022,0.247c0.078,0.75,0.208,1.492,0.387,2.21
				h25.691c0.029-0.718,0.004-1.46-0.075-2.21C361.286,182.469,361.277,182.384,361.265,182.303z"/>
		</g>
		<path style="fill:#FF8B7B;" d="M357.668,131.136l-11.761,10.386c1.697,4.405,2.374,9.155-4.326,11.258
			c-0.365,0.114-0.679,0.359-0.871,0.69c-1.583,2.74-1.914,7.008,5.467,6.338c7.035-0.638,11.272-3.872,14.453-6.984
			c0.557-0.545,0.622-1.444,0.102-2.004C356.73,146.508,356.991,136.7,357.668,131.136z"/>
		<path style="opacity:0.2;" d="M352.874,135.374l-6.961,6.143c0.416,1.069,0.765,2.158,0.956,3.225
			c2.8-0.532,6.426-3.528,6.47-6.184C353.36,137.233,353.175,135.972,352.874,135.374z"/>
		<path style="fill:#263238;" d="M335.627,116.612c-2.577,3.556-0.876,11.81,1.045,13.106
			C341.432,127.471,340.552,114.584,335.627,116.612z"/>
		<path style="fill:#FF8B7B;" d="M357.879,122.058c-0.042,8.074,0.345,12.797-3.496,17.193c-5.778,6.611-15.942,3.584-18.32-4.316
			c-2.14-7.111-1.713-19.119,6.002-22.839C349.667,108.431,357.921,113.984,357.879,122.058z"/>
		<path style="fill:#263238;" d="M357.344,130.046c1.175-2.697-5.201-1.087-5.201-1.087s-1.015-8.639,1.734-12.02
			c-2.769,1.649-10.105,1.607-11.628,0c-3.087,1.564-7.188,2.029-9.809,0.211c-2.621-1.818-2.495-6.046-0.803-8.076
			c2.156,1.987,5.201-0.761,3.848-2.114c4.3-2.579,11.585-1.184,12.98,0.296c-1.226-1.945,0.719-3.256,0.719-3.256
			s0.844,3.272,3.425,3.129c4.566-0.254,9.905,1.311,7.864,5.623c3.256,0.338,4.82,4.059,3.848,6.977
			c-0.972,2.917,1.945,3.467,2.283,2.579c1.099,2.072,0.211,3.298-1.691,4.059c4.989,5.781-5.666,7.539-7.64,11.303
			C357.273,137.67,355.906,133.344,357.344,130.046z"/>
		<path style="fill:#FF8B7B;" d="M362.143,129.681c-0.903,1.99-2.639,3.389-4.329,4.007c-2.542,0.931-4.003-1.274-3.456-3.769
			c0.493-2.245,2.409-5.435,5.037-5.294C361.984,124.766,363.175,127.406,362.143,129.681z"/>
		<path style="fill:#263238;" d="M367.8,307.338c-2.619-40.962,2.468-88.785,2.468-88.785l-33.984,2.155
			c2.008,15.456,7.991,65.143,10.466,89.429c2.628,25.793,9.712,88.597,9.712,88.597l13.802,0.21
			C370.264,398.945,371.515,339.664,367.8,307.338z"/>
		<path style="opacity:0.2;" d="M367.547,302.912c-0.031-0.538-0.051-1.076-0.072-1.614c-0.847-18.458-0.289-37.749,0.542-53.052
			l-2.095,1.329c-8.941,13.253-3.2,38.185,1.752,55.802C367.628,304.555,367.582,303.734,367.547,302.912z"/>
		<polygon style="fill:#263238;" points="355.148,395.901 356.246,401.52 370.583,401.778 371.146,396.469 		"/>
		<path style="fill:#263238;" d="M346.257,125.358c0.037,0.655-0.281,1.208-0.711,1.237c-0.429,0.028-0.807-0.48-0.844-1.134
			c-0.037-0.655,0.281-1.208,0.711-1.237C345.842,124.196,346.22,124.704,346.257,125.358z"/>
		<path style="fill:#263238;" d="M337.198,126.077c0.037,0.655-0.281,1.208-0.71,1.237c-0.429,0.028-0.807-0.48-0.844-1.134
			c-0.037-0.655,0.281-1.208,0.71-1.237C336.783,124.914,337.161,125.422,337.198,126.077z"/>
		<path style="fill:#FF5652;" d="M340.726,125.769c0,0-1.28,3.875-2.821,5.806c1.223,1.005,3.171,0.381,3.171,0.381L340.726,125.769
			z"/>
		<path style="fill:#263238;" d="M343.942,133.526c2.479-0.5,3.541-2.305,3.589-2.39c0.053-0.093,0.021-0.21-0.071-0.262
			c-0.092-0.052-0.21-0.019-0.264,0.073c-0.012,0.021-1.253,2.118-4.128,2.307c-0.106,0.008-0.188,0.099-0.182,0.205
			c0.006,0.106,0.097,0.187,0.204,0.18C343.391,133.618,343.675,133.579,343.942,133.526z"/>
		<path style="fill:#263238;" d="M348.327,121.328c0.063-0.013,0.124-0.041,0.177-0.086c0.163-0.139,0.183-0.383,0.044-0.544
			c-1.383-1.612-3.155-1.391-3.23-1.38c-0.212,0.029-0.361,0.223-0.335,0.434c0.027,0.21,0.219,0.357,0.43,0.33l0,0
			c0.058-0.007,1.442-0.165,2.545,1.121C348.053,121.312,348.195,121.355,348.327,121.328z"/>
		<path style="fill:#263238;" d="M334.991,122.726c0.125-0.011,0.242-0.082,0.308-0.199c0.832-1.493,2.217-1.632,2.275-1.637
			c0.212-0.019,0.372-0.205,0.356-0.416c-0.016-0.211-0.198-0.369-0.41-0.352c-0.077,0.008-1.853,0.165-2.895,2.036
			c-0.104,0.187-0.037,0.421,0.149,0.523C334.842,122.718,334.918,122.733,334.991,122.726z"/>
		<polygon style="fill:#FF8B7B;" points="412.837,412.923 404.679,412.795 400.866,393.901 409.023,394.029 		"/>
		<path style="fill:#407BFF;" d="M411.645,407.022l-8.869-0.084c-0.332-0.003-0.534,0.227-0.485,0.553l1.086,7.271
			c0.113,0.754,0.945,1.475,1.707,1.469c3.179-0.025,4.121-0.261,8.142-0.223c4.702,0.044,2.573,0.184,8.087,0.236
			c3.334,0.032,3.004-3.347,1.494-3.683c-4.779-1.065-6.432-2.902-8.97-4.882C413.173,407.161,412.346,407.029,411.645,407.022z"/>
		<polygon style="opacity:0.2;" points="400.868,393.906 402.832,403.645 410.993,403.773 409.029,394.034 		"/>
		<path style="fill:#263238;" d="M396.28,306.741c-5.683-37.071-10.607-74.147-16.462-88.792l-28.792,1.825
			c0,0,16.212,63.513,24.5,89.222c4.007,27.023,23.88,90.41,23.88,90.41l12.942-0.566
			C412.347,398.84,401.963,343.811,396.28,306.741z"/>
		<polygon style="fill:#263238;" points="397.358,397.134 399.404,402.653 413.745,402.189 413.407,396.895 		"/>
		<g>
			<path style="fill:#FF8B7B;" d="M380.315,161.863c0.459,0.731,0.8,1.297,1.171,1.932c0.362,0.62,0.694,1.247,1.03,1.871
				c0.668,1.249,1.299,2.509,1.915,3.777c1.202,2.549,2.288,5.158,3.229,7.837c0.968,2.666,1.759,5.421,2.402,8.234l0.464,2.117
				l0.361,2.158c0.13,0.713,0.207,1.448,0.287,2.181l0.121,1.097l0.06,0.548l0.015,0.137l0.031,0.417
				c0.014,0.29,0.024,0.606,0.002,0.859c-0.061,1.117-0.322,1.947-0.591,2.653c-0.279,0.721-0.58,1.243-0.886,1.755
				c-0.605,0.965-1.221,1.683-1.821,2.329c-1.202,1.275-2.376,2.258-3.551,3.177c-2.347,1.817-4.72,3.29-7.105,4.695
				c-4.8,2.759-9.636,5.1-14.746,7.106l-2.895-5.387c4.181-3.09,8.454-6.19,12.43-9.375c1.989-1.582,3.914-3.224,5.593-4.855
				c0.833-0.808,1.6-1.641,2.132-2.37c0.263-0.357,0.457-0.695,0.531-0.868c0.076-0.136-0.084-0.189-0.195,0.688
				c0,0.088-0.015,0.238-0.006,0.363l0.015,0.17L380.28,195l-0.089-0.434l-0.176-0.868c-0.115-0.578-0.224-1.155-0.388-1.734
				l-0.437-1.736l-0.508-1.736c-0.71-2.309-1.522-4.613-2.455-6.894c-0.936-2.276-1.933-4.545-3.019-6.775
				c-0.54-1.116-1.091-2.228-1.67-3.317l-0.875-1.617l-0.829-1.502L380.315,161.863z"/>
			<path style="fill:#FF8B7B;" d="M362.688,210.203l-8.215,0.835l3.547,9.16c0,0,7.363-1.657,7.187-5.695L362.688,210.203z"/>
			<path style="fill:#FF8B7B;" d="M348.891,217.631l1.789,2.99c0.712,1.191,2.191,1.674,3.495,1.143l3.846-1.567l-3.547-9.16
				l-4.526,2.632C348.552,214.481,348.075,216.268,348.891,217.631z"/>
		</g>
		<path style="fill:#407BFF;" d="M357.482,166.238c2.384,6.489,10.892,15.023,15.169,19.424c9.496-0.118,15.862-9.487,15.862-9.487
			s-4.323-16.442-12.767-22.382C369.398,149.328,353.267,154.764,357.482,166.238z"/>
	</g>
</g>
<g id="Printer">
	<g>
		<g>
			<rect x="142.757" y="302.519" style="fill:#263238;" width="197.243" height="18.324"/>
			<rect x="284.013" y="302.519" style="opacity:0.2;" width="55.988" height="18.324"/>
			<rect x="142.757" y="320.843" style="fill:#263238;" width="11.806" height="98.931"/>
			<polygon style="opacity:0.2;" points="154.563,325.974 142.757,323.408 142.757,320.843 154.563,320.843 			"/>
			<g>
				<rect x="328.195" y="320.843" style="fill:#263238;" width="11.806" height="98.931"/>
				<rect x="328.195" y="320.843" style="opacity:0.2;" width="11.806" height="98.931"/>
			</g>
			<rect x="284.013" y="320.843" style="fill:#263238;" width="11.806" height="98.931"/>
			<polygon style="opacity:0.2;" points="295.819,325.974 284.013,323.408 284.013,320.843 295.819,320.843 			"/>
			<g>
				<rect x="179.721" y="320.843" style="fill:#263238;" width="11.806" height="98.931"/>
				<rect x="179.721" y="320.843" style="opacity:0.2;" width="11.806" height="98.931"/>
			</g>
		</g>
		<g>
			<g>
				<polygon style="fill:#263238;" points="319.96,210.519 172.089,210.519 158.96,268.019 306.831,268.019 				"/>
				<polygon points="319.96,210.519 323.34,210.519 310.21,268.019 306.831,268.019 				"/>
				<path style="fill:#407BFF;" d="M341.205,302.519H128.071c-6.6,0-12-5.4-12-12v-45c0-6.6,5.4-12,12-12h213.134
					c6.6,0,12,5.4,12,12v45C353.205,297.119,347.805,302.519,341.205,302.519z"/>
				<path style="opacity:0.2;" d="M341.205,302.519H313.96c-6.6,0-12-5.4-12-12v-45c0-6.6,5.4-12,12-12h27.245c6.6,0,12,5.4,12,12
					v45C353.205,297.119,347.805,302.519,341.205,302.519z"/>
				<path style="opacity:0.2;" d="M293.199,251.352H124.832c-1.091,0-1.983-0.892-1.983-1.983l0,0c0-1.091,0.892-1.983,1.983-1.983
					h168.367c1.091,0,1.983,0.892,1.983,1.983l0,0C295.182,250.46,294.29,251.352,293.199,251.352z"/>
				<path style="fill:#FFFFFF;" d="M283.405,269.852h10.111c0.917,0,1.667-0.75,1.667-1.667l0,0c0-0.917-0.75-1.667-1.667-1.667
					h-10.111c-0.917,0-1.667,0.75-1.667,1.667l0,0C281.738,269.102,282.488,269.852,283.405,269.852z"/>
				<path style="fill:#FFFFFF;" d="M283.405,276.939h10.111c0.917,0,1.667-0.75,1.667-1.667l0,0c0-0.917-0.75-1.667-1.667-1.667
					h-10.111c-0.917,0-1.667,0.75-1.667,1.667l0,0C281.738,276.189,282.488,276.939,283.405,276.939z"/>
				<path style="fill:#FFFFFF;" d="M283.405,284.025h10.111c0.917,0,1.667-0.75,1.667-1.667l0,0c0-0.917-0.75-1.667-1.667-1.667
					h-10.111c-0.917,0-1.667,0.75-1.667,1.667l0,0C281.738,283.275,282.488,284.025,283.405,284.025z"/>
			</g>
			<g>
				<g>
					<g>
						<path style="fill:#407BFF;" d="M164.113,249.352c1.943-16.868-10.157-30.542-27.025-30.542h30.542h92.673
							c16.868,0,28.967,13.674,27.025,30.542H164.113z"/>
					</g>
					<g style="opacity:0.3;">
						<path style="fill:#FFFFFF;" d="M164.113,249.352c1.943-16.868-10.157-30.542-27.025-30.542h30.542h92.673
							c16.868,0,28.967,13.674,27.025,30.542H164.113z"/>
					</g>
				</g>
				<g>
					<path style="fill:#407BFF;" d="M137.088,218.81h92.673h30.542c-16.868,0-32.117,13.674-34.06,30.542L212.27,370.678
						c-1.943,16.868-17.192,30.542-34.059,30.542h-62.132c-16.868,0-28.967-13.674-27.024-30.542l13.974-121.326
						C104.971,232.484,120.22,218.81,137.088,218.81z"/>
					<path style="opacity:0.7;fill:#FFFFFF;" d="M137.088,218.81h92.673h30.542c-16.868,0-32.117,13.674-34.06,30.542
						L212.27,370.678c-1.943,16.868-17.192,30.542-34.059,30.542h-62.132c-16.868,0-28.967-13.674-27.024-30.542l13.974-121.326
						C104.971,232.484,120.22,218.81,137.088,218.81z"/>
				</g>
				<g>
					<path style="fill:#407BFF;" d="M151.186,370.678c-1.943,16.868,10.157,30.542,27.024,30.542h-30.542H54.995
						c-16.868,0-28.967-13.674-27.024-30.542H151.186z"/>
					<path style="opacity:0.5;fill:#FFFFFF;" d="M151.186,370.678c-1.943,16.868,10.157,30.542,27.024,30.542h-30.542H54.995
						c-16.868,0-28.967-13.674-27.024-30.542H151.186z"/>
				</g>
			</g>
			<g>
				<g>
					<path style="fill:#407BFF;" d="M111.968,259.904h2.898l-1.078,9.358h-2.898L111.968,259.904z"/>
					<path style="fill:#407BFF;" d="M116.96,259.904h2.7l2.928,5.178l0.596-5.178h2.726l-1.078,9.358h-2.726l-2.913-5.139
						l-0.592,5.139h-2.72L116.96,259.904z"/>
					<path style="fill:#407BFF;" d="M126.913,259.904h3.023l1.331,6.734l2.855-6.734h2.936l-4.553,9.358h-3.134L126.913,259.904z"/>
					<path style="fill:#407BFF;" d="M136.651,264.59c0.176-1.528,0.739-2.718,1.687-3.568c0.95-0.852,2.184-1.277,3.704-1.277
						c1.558,0,2.71,0.418,3.456,1.255c0.745,0.836,1.032,2.008,0.859,3.514c-0.126,1.094-0.414,1.991-0.863,2.691
						c-0.449,0.7-1.043,1.245-1.784,1.634c-0.74,0.39-1.63,0.584-2.669,0.584c-1.056,0-1.909-0.168-2.562-0.504
						c-0.654-0.336-1.153-0.868-1.499-1.596C136.635,266.594,136.525,265.684,136.651,264.59z M139.541,264.603
						c-0.109,0.944-0.011,1.624,0.293,2.036c0.303,0.413,0.757,0.619,1.361,0.619c0.621,0,1.126-0.202,1.513-0.606
						c0.386-0.404,0.641-1.13,0.762-2.177c0.101-0.881-0.002-1.524-0.311-1.931c-0.309-0.406-0.768-0.61-1.376-0.61
						c-0.583,0-1.075,0.207-1.476,0.619C139.907,262.966,139.651,263.649,139.541,264.603z"/>
					<path style="fill:#407BFF;" d="M148.56,259.904h2.898l-1.078,9.358h-2.898L148.56,259.904z"/>
					<path style="fill:#407BFF;" d="M159.127,265.433l2.446,0.766c-0.252,0.711-0.589,1.305-1.01,1.781
						c-0.42,0.477-0.917,0.836-1.487,1.079c-0.571,0.242-1.275,0.363-2.114,0.363c-1.017,0-1.831-0.147-2.441-0.443
						c-0.611-0.295-1.107-0.815-1.49-1.56c-0.382-0.744-0.507-1.697-0.373-2.858c0.178-1.548,0.727-2.737,1.646-3.569
						c0.919-0.831,2.132-1.247,3.639-1.247c1.179,0,2.078,0.238,2.698,0.715c0.62,0.476,1.037,1.209,1.251,2.196l-2.619,0.568
						c-0.057-0.285-0.127-0.494-0.209-0.626c-0.137-0.221-0.314-0.392-0.535-0.511c-0.221-0.119-0.475-0.179-0.764-0.179
						c-0.655,0-1.188,0.264-1.598,0.791c-0.309,0.391-0.511,1.005-0.608,1.843c-0.119,1.037-0.044,1.748,0.227,2.133
						c0.27,0.385,0.69,0.577,1.261,0.577c0.554,0,0.99-0.155,1.309-0.466C158.674,266.476,158.931,266.024,159.127,265.433z"/>
					<path style="fill:#407BFF;" d="M163.697,259.904h7.75l-0.23,1.998h-4.852l-0.171,1.487h4.501l-0.22,1.908h-4.501l-0.213,1.846
						h4.992l-0.244,2.119h-7.891L163.697,259.904z"/>
				</g>
				<polygon style="fill:#407BFF;" points="211.761,293.685 107.298,293.685 108.661,281.852 213.124,281.852 				"/>
				<polygon style="opacity:0.8;fill:#FFFFFF;" points="211.761,293.685 107.298,293.685 106.185,303.352 210.648,303.352 				"/>
				<polygon style="fill:#407BFF;" points="204.541,356.373 172.745,356.373 173.403,350.655 205.2,350.655 				"/>
				<polygon style="opacity:0.8;fill:#FFFFFF;" points="204.541,356.373 172.745,356.373 172.207,361.044 204.003,361.044 				"/>
				<polygon style="opacity:0.5;fill:#FFFFFF;" points="209.535,313.019 105.072,313.019 106.185,303.352 210.648,303.352 				"/>
				<polygon style="opacity:0.8;fill:#FFFFFF;" points="209.535,313.019 105.072,313.019 103.958,322.685 208.421,322.685 				"/>
				<polygon style="opacity:0.5;fill:#FFFFFF;" points="207.308,332.352 102.845,332.352 103.958,322.685 208.421,322.685 				"/>
				<polygon style="opacity:0.8;fill:#FFFFFF;" points="207.308,332.352 102.845,332.352 101.731,342.019 206.195,342.019 				"/>
			</g>
		</g>
	</g>
</g>
</svg>
